<svg width="512" height="512" viewBox="0 0 512 512" xmlns="http://www.w3.org/2000/svg">
  <defs>
    <linearGradient id="bg" x1="0" y1="0" x2="1" y2="1">
      <stop offset="0%" stop-color="#0f172a"/>
      <stop offset="100%" stop-color="#1d4ed8"/>
    </linearGradient>
    <linearGradient id="accent" x1="0" y1="0" x2="1" y2="1">
      <stop offset="0%" stop-color="#22c55e"/>
      <stop offset="100%" stop-color="#84cc16"/>
    </linearGradient>
  </defs>

  <rect x="24" y="24" width="464" height="464" rx="96" fill="url(#bg)"/>
  <rect x="86" y="86" width="340" height="340" rx="44" fill="#0b1220" stroke="#334155" stroke-width="8"/>

  <path d="M146 300h74c18 0 33 15 33 33s-15 33-33 33h-74V300z" fill="url(#accent)"/>
  <path d="M366 214h-74c-18 0-33-15-33-33s15-33 33-33h74v66z" fill="#60a5fa"/>

  <path d="M160 238l44 44 72-72" fill="none" stroke="#22c55e" stroke-width="20" stroke-linecap="round" stroke-linejoin="round"/>
  <path d="M275 295h79" fill="none" stroke="#60a5fa" stroke-width="20" stroke-linecap="round"/>

  <text x="256" y="430" text-anchor="middle" font-family="Menlo, Monaco, monospace" font-size="42" fill="#e2e8f0">WEBP</text>
</svg>
